<svg width="1024" height="1024" viewBox="0 0 1024 1024" fill="none" xmlns="http://www.w3.org/2000/svg">
  <rect width="1024" height="1024" rx="240" fill="#FFF6E5"/>
  <circle cx="512" cy="540" r="250" fill="#F6C86A"/>
  <ellipse cx="310" cy="380" rx="118" ry="170" transform="rotate(-22 310 380)" fill="#E3A84A"/>
  <ellipse cx="714" cy="380" rx="118" ry="170" transform="rotate(22 714 380)" fill="#E3A84A"/>
  <ellipse cx="350" cy="424" rx="78" ry="112" transform="rotate(-18 350 424)" fill="#F6C86A"/>
  <ellipse cx="674" cy="424" rx="78" ry="112" transform="rotate(18 674 424)" fill="#F6C86A"/>
  <ellipse cx="512" cy="612" rx="186" ry="156" fill="#FFF3DC"/>
  <ellipse cx="412" cy="504" rx="32" ry="42" fill="#2E241C"/>
  <ellipse cx="612" cy="504" rx="32" ry="42" fill="#2E241C"/>
  <ellipse cx="400" cy="492" rx="10" ry="12" fill="#FFFDF8"/>
  <ellipse cx="600" cy="492" rx="10" ry="12" fill="#FFFDF8"/>
  <ellipse cx="512" cy="590" rx="82" ry="64" fill="#FFF7EC"/>
  <path d="M512 564C548 564 578 590 578 622C578 654 548 676 512 676C476 676 446 654 446 622C446 590 476 564 512 564Z" fill="#FFF3E0"/>
  <ellipse cx="512" cy="590" rx="48" ry="38" fill="#4A3527"/>
  <path d="M512 626V654" stroke="#4A3527" stroke-width="18" stroke-linecap="round"/>
  <path d="M512 654C492 682 468 696 436 702" stroke="#4A3527" stroke-width="18" stroke-linecap="round"/>
  <path d="M512 654C532 682 556 696 588 702" stroke="#4A3527" stroke-width="18" stroke-linecap="round"/>
  <path d="M454 728C474 748 492 758 512 758C532 758 550 748 570 728" stroke="#D98D9C" stroke-width="18" stroke-linecap="round"/>
  <ellipse cx="350" cy="606" rx="34" ry="22" fill="#F1AE9A" fill-opacity="0.75"/>
  <ellipse cx="674" cy="606" rx="34" ry="22" fill="#F1AE9A" fill-opacity="0.75"/>
  <path d="M346 334C394 290 454 268 512 268C570 268 630 290 678 334" stroke="#D9993C" stroke-width="36" stroke-linecap="round"/>
  <path d="M390 254C426 224 470 208 512 208C554 208 598 224 634 254" stroke="#FFE4A8" stroke-width="28" stroke-linecap="round"/>
</svg>
